<svg width="15" height="19" viewBox="0 0 15 19" fill="none" xmlns="http://www.w3.org/2000/svg">
<path d="M6.84692 17.8984C1.71411 10.5156 0.800049 9.74219 0.800049 7C0.800049 3.27344 3.78833 0.25 7.55005 0.25C11.2766 0.25 14.3 3.27344 14.3 7C14.3 9.74219 13.3508 10.5156 8.21802 17.8984C7.90161 18.3906 7.16333 18.3906 6.84692 17.8984ZM7.55005 9.8125C9.09692 9.8125 10.3625 8.58203 10.3625 7C10.3625 5.45312 9.09692 4.1875 7.55005 4.1875C5.96802 4.1875 4.73755 5.45312 4.73755 7C4.73755 8.58203 5.96802 9.8125 7.55005 9.8125Z" fill="#FFB30E"/>
</svg>
